<mxGraphModel dx="1422" dy="795" grid="1" gridSize="10" guides="1" tooltips="1" connect="1" arrows="1" fold="1" page="1" pageScale="1" pageWidth="850" pageHeight="1100" math="0" shadow="0">
  <root>
    <mxCell id="0" />
    <mxCell id="1" parent="0" />
    <mxCell id="auuYeCAxz7LAwCTdT31Y-22" value="" style="edgeStyle=orthogonalEdgeStyle;rounded=0;orthogonalLoop=1;jettySize=auto;html=1;" edge="1" parent="1" source="auuYeCAxz7LAwCTdT31Y-20" target="auuYeCAxz7LAwCTdT31Y-21">
      <mxGeometry relative="1" as="geometry" />
    </mxCell>
    <mxCell id="auuYeCAxz7LAwCTdT31Y-20" value="Начало&lt;br&gt;&lt;span style=&quot;background-color: rgb(255 , 255 , 255)&quot;&gt;Изменить политику удаления папки&lt;/span&gt;" style="strokeWidth=2;html=1;shape=mxgraph.flowchart.terminator;whiteSpace=wrap;" vertex="1" parent="1">
      <mxGeometry x="480" y="20" width="160" height="80" as="geometry" />
    </mxCell>
    <mxCell id="auuYeCAxz7LAwCTdT31Y-24" value="" style="edgeStyle=orthogonalEdgeStyle;rounded=0;orthogonalLoop=1;jettySize=auto;html=1;" edge="1" parent="1" source="auuYeCAxz7LAwCTdT31Y-21" target="auuYeCAxz7LAwCTdT31Y-23">
      <mxGeometry relative="1" as="geometry" />
    </mxCell>
    <mxCell id="auuYeCAxz7LAwCTdT31Y-21" value="Получить информацию от текущей политике доступа к папке" style="rounded=0;whiteSpace=wrap;html=1;" vertex="1" parent="1">
      <mxGeometry x="480" y="130" width="160" height="80" as="geometry" />
    </mxCell>
    <mxCell id="auuYeCAxz7LAwCTdT31Y-26" value="" style="edgeStyle=orthogonalEdgeStyle;rounded=0;orthogonalLoop=1;jettySize=auto;html=1;" edge="1" parent="1" source="auuYeCAxz7LAwCTdT31Y-23" target="auuYeCAxz7LAwCTdT31Y-25">
      <mxGeometry relative="1" as="geometry" />
    </mxCell>
    <mxCell id="auuYeCAxz7LAwCTdT31Y-23" value="Создать политику запрета удаления для всех пользователей" style="rounded=0;whiteSpace=wrap;html=1;" vertex="1" parent="1">
      <mxGeometry x="480" y="250" width="160" height="80" as="geometry" />
    </mxCell>
    <mxCell id="auuYeCAxz7LAwCTdT31Y-28" value="" style="edgeStyle=orthogonalEdgeStyle;rounded=0;orthogonalLoop=1;jettySize=auto;html=1;" edge="1" parent="1" source="auuYeCAxz7LAwCTdT31Y-25" target="auuYeCAxz7LAwCTdT31Y-27">
      <mxGeometry relative="1" as="geometry" />
    </mxCell>
    <mxCell id="auuYeCAxz7LAwCTdT31Y-25" value="Объединить политику доступа с политикой запрета удаления" style="rounded=0;whiteSpace=wrap;html=1;" vertex="1" parent="1">
      <mxGeometry x="480" y="370" width="160" height="80" as="geometry" />
    </mxCell>
    <mxCell id="auuYeCAxz7LAwCTdT31Y-30" value="" style="edgeStyle=orthogonalEdgeStyle;rounded=0;orthogonalLoop=1;jettySize=auto;html=1;" edge="1" parent="1" source="auuYeCAxz7LAwCTdT31Y-27" target="auuYeCAxz7LAwCTdT31Y-29">
      <mxGeometry relative="1" as="geometry" />
    </mxCell>
    <mxCell id="auuYeCAxz7LAwCTdT31Y-27" value="Установить политику доступа к папке" style="rounded=0;whiteSpace=wrap;html=1;" vertex="1" parent="1">
      <mxGeometry x="480" y="490" width="160" height="80" as="geometry" />
    </mxCell>
    <mxCell id="auuYeCAxz7LAwCTdT31Y-29" value="Конец&lt;br&gt;&lt;span style=&quot;background-color: rgb(255 , 255 , 255)&quot;&gt;Изменить политику удаления папки&lt;/span&gt;" style="strokeWidth=2;html=1;shape=mxgraph.flowchart.terminator;whiteSpace=wrap;" vertex="1" parent="1">
      <mxGeometry x="480" y="620" width="160" height="80" as="geometry" />
    </mxCell>
  </root>
</mxGraphModel>